<svg xmlns="http://www.w3.org/2000/svg" xmlns:xlink="http://www.w3.org/1999/xlink" width="13px" height="17px">
<path fill-rule="evenodd"  fill="rgb(255, 255, 255)" d="M10.674,6.761 L10.674,4.674 C10.674,2.369 8.805,0.501 6.500,0.501 C4.195,0.501 2.326,2.369 2.326,4.674 L2.326,6.761 C1.558,6.761 0.935,7.383 0.935,8.152 L0.935,15.108 C0.935,15.876 1.558,16.499 2.326,16.499 L10.674,16.499 C11.442,16.499 12.065,15.876 12.065,15.108 L12.065,8.152 C12.065,7.383 11.442,6.761 10.674,6.761 ZM3.718,4.674 C3.718,3.137 4.963,1.892 6.500,1.892 C8.036,1.892 9.282,3.137 9.282,4.674 L9.282,6.761 L3.718,6.761 L3.718,4.674 ZM10.674,15.108 L2.326,15.108 L2.326,8.152 L10.674,8.152 L10.674,15.108 ZM5.804,12.133 L5.804,13.021 C5.804,13.405 6.116,13.717 6.500,13.717 C6.884,13.717 7.196,13.405 7.196,13.021 L7.196,12.133 C7.609,11.892 7.891,11.448 7.891,10.934 C7.891,10.166 7.268,9.543 6.500,9.543 C5.732,9.543 5.109,10.166 5.109,10.934 C5.109,11.448 5.390,11.892 5.804,12.133 Z"/>
</svg>