<?xml version="1.0" encoding="UTF-8"?>
<!DOCTYPE svg PUBLIC "-//W3C//DTD SVG 1.1//EN" "http://www.w3.org/Graphics/SVG/1.1/DTD/svg11.dtd">
<!-- Creator: CorelDRAW X7 -->
<svg xmlns="http://www.w3.org/2000/svg" xml:space="preserve" width="255.262mm" height="104.387mm" version="1.1" style="shape-rendering:geometricPrecision; text-rendering:geometricPrecision; image-rendering:optimizeQuality; fill-rule:evenodd; clip-rule:evenodd"
viewBox="0 0 25526 10439"
 xmlns:xlink="http://www.w3.org/1999/xlink">
 <defs>
  <style type="text/css">
   <![CDATA[
    .fil0 {fill:#FEFEFE;fill-rule:nonzero}
   ]]>
  </style>
 </defs>
 <g id="Слой_x0020_1">
  <metadata id="CorelCorpID_0Corel-Layer"/>
  <g id="_1672129512768">
   <path class="fil0" d="M6223 7292c-522,-313 -931,-826 -1228,-1541 -265,-650 -397,-1373 -397,-2167 0,-923 172,-1702 518,-2336 385,-691 895,-1036 1529,-1036 834,0 1252,795 1252,2384 0,1525 -558,3091 -1674,4696zm634 -7308l-104 0c-799,19 -1441,408 -1926,1167 -458,707 -687,1566 -687,2577 0,827 161,1574 482,2240 353,722 847,1228 1481,1517 -594,819 -1234,1483 -1921,1993 -686,509 -1298,764 -1836,764 -602,0 -1092,-289 -1469,-867 -345,-521 -518,-1144 -518,-1866 0,-1477 586,-2890 1758,-4238 490,-562 1076,-1092 1758,-1590 24,-24 36,-44 36,-60 0,-64 -32,-96 -96,-96 -32,0 -60,8 -84,24 -2481,1822 -3721,3817 -3721,5984 0,931 217,1654 650,2167 410,482 952,723 1626,723 674,0 1381,-269 2119,-807 698,-498 1349,-1176 1951,-2035 329,105 654,157 975,157 80,0 159,-5 237,-14 -439,483 -659,969 -659,1459 0,401 161,602 482,602 217,0 444,-69 680,-205 237,-136 448,-325 633,-566 168,-209 289,-431 361,-668 72,-237 108,-444 108,-620 48,-289 20,-568 -84,-837 -105,-269 -233,-526 -385,-771 -153,-245 -298,-469 -434,-674 -137,-205 -213,-387 -229,-548 -16,-217 50,-391 199,-524 148,-132 345,-241 590,-325 245,-84 516,-144 813,-180 297,-37 588,-61 873,-73 285,-12 537,-16 758,-12 221,4 380,2 476,-6l782 0c185,8 284,-6 296,-42 12,-36 -39,-78 -151,-126 -136,-56 -333,-101 -590,-133 -257,-32 -542,-44 -855,-36 -313,8 -640,36 -981,84 -342,49 -667,119 -975,211 -310,93 -589,211 -837,355 -249,145 -434,313 -554,506 -48,145 -62,285 -42,421 20,137 62,274 126,410 64,136 140,273 229,409 88,137 181,277 277,422 88,136 168,253 241,349 72,96 132,195 180,295 48,100 84,215 109,343 24,129 36,289 36,482 0,80 -14,174 -42,283 -29,108 -67,218 -115,331 -48,112 -104,225 -168,337 -65,112 -133,217 -205,313 -289,329 -574,494 -855,494 -193,0 -289,-137 -289,-410 0,-417 201,-851 602,-1300 70,-81 138,-154 202,-219 83,-38 164,-81 244,-130 24,-16 40,-32 48,-49 -7,-20 -26,-31 -55,-34 129,-102 244,-162 344,-182 48,-32 72,-64 72,-97 0,-80 -64,-120 -193,-120 -196,0 -505,213 -926,637 -99,16 -199,25 -302,25 -337,0 -646,-60 -927,-180 1148,-1718 1722,-3420 1722,-5106 0,-570 -96,-1067 -289,-1493 -241,-545 -592,-825 -1052,-842z"/>
   <path class="fil0" d="M22297 1416c145,0 217,93 217,277 0,667 -329,1497 -987,2493 -522,786 -1168,1573 -1939,2360 -682,690 -1132,1071 -1348,1144 1982,-3998 3335,-6089 4057,-6274zm3203 7189c-24,0 -48,12 -72,36 -698,473 -1252,710 -1662,710 -248,0 -373,-112 -373,-337 0,-128 173,-429 518,-903 104,-144 156,-237 156,-277 0,-112 -40,-169 -120,-169 -32,0 -88,49 -169,145 -168,201 -453,470 -854,807 -498,409 -835,614 -1012,614 -56,0 -84,-28 -84,-85 0,-152 112,-341 337,-565 698,-699 1272,-1048 1722,-1048 8,-8 12,-16 12,-24 0,-24 -30,-58 -90,-102 -61,-44 -115,-71 -163,-79 -329,0 -787,237 -1373,711 -287,227 -507,442 -660,643 -39,24 -72,47 -98,67 -835,530 -1417,795 -1746,795 -281,0 -422,-177 -422,-530 0,-225 161,-437 482,-638 305,-177 606,-357 903,-542 321,-249 482,-546 482,-891 0,-120 -85,-193 -253,-217 -434,0 -1108,406 -2023,1216 -466,442 -927,884 -1385,1325 0,-121 189,-570 566,-1349 161,0 622,-349 1385,-1047 883,-811 1617,-1638 2203,-2481 771,-1099 1156,-2059 1156,-2877 0,-257 -128,-386 -385,-386 -490,0 -1180,687 -2071,2059 -626,972 -1345,2280 -2155,3926 -246,500 -491,1001 -736,1501 -6,-5 -13,-8 -23,-8 -24,0 -48,12 -72,36 -699,473 -1252,710 -1662,710 -249,0 -373,-112 -373,-337 0,-128 172,-429 518,-903 104,-144 156,-237 156,-277 0,-112 -40,-169 -120,-169 -32,0 -89,49 -169,145 -168,201 -453,470 -855,807 -497,409 -835,614 -1011,614 -56,0 -84,-28 -84,-85 0,-152 112,-341 337,-565 698,-699 1272,-1048 1722,-1048 7,-8 12,-16 12,-24 0,-24 -30,-58 -91,-102 -60,-44 -114,-71 -162,-79 -330,0 -787,237 -1373,711 -270,214 -481,416 -633,608 -696,469 -1179,704 -1450,704 -185,0 -277,-100 -277,-301 0,-217 241,-686 723,-1409 56,-80 84,-152 84,-216 0,-105 -52,-157 -157,-157 -56,0 -144,60 -264,181 -241,313 -532,616 -873,909 -342,293 -733,544 -1174,752 -249,113 -406,169 -470,169l-72 0c-72,0 -129,-20 -169,-60 -40,-40 -76,-86 -108,-139 -32,-52 -60,-98 -84,-138 -25,-40 -57,-60 -97,-60 -48,0 -94,32 -138,96 -44,64 -67,140 -67,229 0,152 47,251 139,295 92,44 195,70 307,78 104,8 205,-4 301,-36 96,-32 197,-76 301,-133 104,-56 213,-116 325,-180 112,-64 237,-129 373,-193 281,-160 484,-289 608,-385 125,-97 207,-145 247,-145 24,0 37,16 37,48 0,-7 -11,12 -31,61 -20,48 -44,108 -72,180 -28,73 -52,155 -72,247 -20,92 -30,179 -30,259 0,257 112,385 337,385 295,0 841,-255 1640,-764 -73,141 -111,276 -111,403 0,153 92,229 277,229 193,0 510,-167 951,-500 442,-333 658,-500 650,-500 8,0 12,5 12,12 -128,153 -192,290 -192,410 0,441 208,662 626,662 224,0 598,-144 1120,-433 313,-172 527,-309 643,-411 -110,225 -220,451 -330,676 -48,80 -72,148 -72,204 0,80 48,125 144,133 72,0 600,-460 1583,-1379 984,-919 1604,-1379 1861,-1379 104,0 156,57 156,169 0,249 -154,463 -463,644 -310,181 -608,355 -897,524 -322,217 -482,486 -482,807 0,417 217,626 650,626 233,0 586,-119 1060,-355 329,-165 590,-319 783,-462 -48,112 -73,220 -73,323 0,153 93,229 277,229 193,0 510,-167 951,-500 442,-333 658,-500 651,-500 7,0 12,5 12,12 -129,153 -193,290 -193,410 0,441 209,662 626,662 225,0 598,-144 1120,-433 498,-273 746,-458 746,-554 0,-32 -12,-48 -36,-48z"/>
   <path class="fil0" d="M14690 4238c-12,16 -31,24 -58,24 -4,12 -6,31 -6,55 37,-3 83,-4 140,-4 56,0 102,1 140,4 0,-24 -2,-43 -7,-55 -26,0 -45,-8 -57,-24 -12,-16 -18,-45 -18,-88l0 -119c31,0 58,12 80,36 22,23 46,60 72,109 22,38 41,69 58,92 16,23 36,42 58,56 42,-7 95,-11 159,-11 5,-11 8,-29 8,-54 -34,-3 -60,-9 -80,-20 -21,-11 -39,-27 -56,-49 -16,-22 -41,-59 -75,-113 -16,-27 -29,-46 -38,-57 -10,-11 -21,-19 -35,-24 -14,-5 -34,-9 -60,-10 13,-4 26,-11 39,-23 13,-12 34,-35 61,-70 30,-37 50,-62 61,-72 12,-11 24,-16 36,-16 11,0 19,4 24,13 6,9 10,27 14,55 24,1 46,-1 68,-8 -5,-32 -8,-66 -8,-100 0,-18 0,-31 1,-40 -17,-4 -37,-6 -59,-6 -22,0 -40,3 -55,11 -14,7 -29,18 -42,34 -14,15 -34,41 -61,77l-24 32c-33,43 -59,72 -77,86 -18,14 -41,22 -69,22l0 -93c0,-43 6,-72 18,-88 12,-16 31,-24 57,-24 5,-12 7,-31 7,-55 -38,3 -84,4 -140,4 -57,0 -103,-1 -140,-4 0,24 2,43 6,55 27,0 46,8 58,24 12,16 18,45 18,88l0 262c0,43 -6,72 -18,88z"/>
   <path class="fil0" d="M15345 4314c15,6 32,9 50,9 41,0 77,-16 109,-47 31,-32 52,-77 64,-135 12,-58 21,-152 28,-280 2,-28 4,-47 7,-56 3,-9 10,-15 20,-20 16,-6 35,-9 58,-9 29,0 51,3 64,9 10,5 18,12 21,24 4,11 6,28 6,52l0 289c0,43 -6,72 -18,88 -12,16 -31,24 -58,24 -4,12 -6,31 -6,55 38,-3 84,-4 140,-4 56,0 102,1 140,4 0,-24 -2,-43 -7,-55 -26,0 -45,-8 -57,-24 -12,-16 -18,-45 -18,-88l0 -262c0,-43 6,-72 18,-88 12,-16 31,-24 57,-24 5,-12 7,-31 7,-55 -46,3 -128,4 -247,4 -117,0 -205,-1 -263,-2 0,23 2,41 7,53 25,2 42,5 52,8 9,3 16,8 20,16 3,7 5,20 5,37 0,172 -19,286 -57,342 -11,18 -24,29 -40,36 -15,6 -33,9 -55,9 -15,0 -42,-3 -79,-9 -5,15 -7,32 -7,50 0,8 1,17 3,27 8,9 20,16 36,22z"/>
   <path class="fil0" d="M16070 3795c11,8 23,23 36,44 13,22 29,54 50,97 70,153 128,281 175,386 -25,58 -45,98 -59,119 -32,51 -75,76 -130,76 -26,0 -53,-3 -82,-8 -4,17 -5,35 -5,54 0,16 1,30 3,40 26,20 58,30 97,30 28,0 52,-7 73,-21 22,-14 44,-40 67,-78 23,-39 50,-97 83,-174l189 -449c21,-50 38,-84 50,-100 13,-16 31,-27 54,-33 5,-12 7,-31 7,-55 -25,1 -68,2 -128,2 -58,0 -101,-1 -127,-2 0,19 3,38 9,55 27,5 47,12 60,22 13,10 20,25 20,46 0,19 -8,48 -22,84l-89 224 -11 29c-48,-117 -87,-205 -116,-264 -18,-38 -27,-66 -27,-84 0,-16 6,-28 19,-37 13,-9 34,-16 63,-20 6,-15 9,-33 9,-55 -70,1 -127,2 -170,2 -32,0 -81,-1 -146,-2 0,21 3,39 8,55 16,3 29,9 40,17z"/>
   <path class="fil0" d="M16873 3873c43,-28 85,-43 126,-43 52,0 99,18 140,52 41,35 62,93 62,174 0,60 -13,110 -39,148 -26,39 -64,59 -115,59 -55,0 -98,-26 -129,-78 -30,-53 -46,-140 -46,-262l1 -50zm143 451c90,0 163,-27 217,-81 55,-54 82,-129 82,-225 0,-88 -23,-153 -69,-197 -47,-44 -108,-66 -185,-66 -40,0 -79,6 -116,19 -38,13 -78,34 -122,64 0,-66 13,-119 38,-159 25,-40 65,-70 120,-89 54,-18 125,-28 215,-28 15,0 27,-1 36,-4 9,-3 16,-10 21,-19 3,-53 9,-101 18,-142 -15,-11 -34,-15 -55,-12 -4,23 -12,39 -22,48 -10,9 -27,14 -50,14 -73,0 -139,11 -196,34 -56,22 -104,69 -142,140 -38,71 -57,174 -57,309 0,141 22,242 67,303 44,61 111,91 200,91z"/>
   <path class="fil0" d="M11168 5497c77,0 137,-15 180,-47 42,-31 63,-74 63,-130 0,-44 -14,-79 -42,-105 -27,-27 -67,-43 -118,-50 42,-6 75,-21 98,-44 24,-24 35,-54 35,-91 0,-44 -17,-77 -51,-101 -34,-23 -85,-35 -150,-35 -70,0 -128,13 -175,40 3,19 4,39 4,59 0,19 -1,40 -4,60 20,6 36,9 50,9l17 -1c8,-45 19,-75 33,-93 14,-17 35,-25 64,-25 30,0 54,8 70,24 17,16 25,39 25,68 0,38 -13,67 -39,87 -26,21 -63,33 -112,36 -4,6 -5,15 -5,26 0,9 1,16 2,21 57,0 100,10 131,32 31,22 46,54 46,97 0,36 -10,64 -32,84 -21,20 -51,30 -91,30 -36,0 -62,-9 -77,-28 -16,-19 -28,-50 -34,-95l-17 -1c-16,0 -33,3 -49,10 2,28 3,47 3,59 0,22 -2,43 -4,63 47,28 107,41 179,41z"/>
   <path class="fil0" d="M11855 5247c0,40 -6,74 -20,101 -13,28 -30,48 -49,61 -20,12 -40,19 -59,19 -22,0 -40,-8 -54,-23 -15,-16 -22,-38 -22,-68 0,-34 10,-61 30,-80 20,-20 44,-33 71,-40 28,-7 62,-14 103,-19l0 49zm17 234c5,9 13,16 24,20 19,-10 43,-19 71,-26 28,-8 53,-12 75,-14 6,-14 8,-34 8,-59 -33,0 -55,-6 -65,-19 -9,-13 -14,-36 -14,-68l0 -154c0,-60 -4,-107 -12,-141 -8,-33 -22,-61 -42,-81 -33,-33 -78,-49 -136,-49 -33,0 -69,5 -108,15 -39,11 -76,25 -111,43 6,26 8,59 8,96 0,21 0,35 -1,44 12,6 34,9 67,9 1,-36 11,-70 28,-102 18,-31 46,-47 85,-47 32,0 59,13 79,38 11,14 19,31 22,51 3,20 5,56 5,109 -55,7 -105,18 -150,30 -45,13 -86,35 -123,65 -37,31 -55,71 -55,121 0,43 14,77 43,101 28,23 68,35 120,35 55,0 100,-14 133,-43 20,-17 34,-37 44,-60 -2,15 -3,27 -3,35 0,25 3,42 8,51z"/>
   <path class="fil0" d="M12416 4948c57,0 97,10 118,31 21,20 34,49 39,87 26,0 47,-5 64,-15 -8,-31 -15,-82 -22,-152 -51,2 -142,3 -271,3 -75,0 -141,-2 -196,-4 0,24 2,42 6,55 27,0 46,8 58,24 12,16 18,45 18,88l0 262c0,42 -6,72 -18,87 -12,16 -31,24 -58,24 -4,13 -6,31 -6,55 37,-2 83,-3 140,-3 55,0 108,1 159,3 0,-23 -2,-39 -7,-50 -35,-1 -59,-9 -73,-22 -15,-13 -22,-38 -22,-75l0 -398 71 0z"/>
   <path class="fil0" d="M12868 5011c26,-40 62,-59 110,-59 32,0 61,10 87,32 27,21 48,52 64,91 16,39 24,85 24,136 0,70 -13,126 -39,167 -25,41 -63,61 -113,61 -53,0 -95,-23 -125,-71 -30,-47 -45,-114 -45,-199 0,-66 12,-119 37,-158zm-130 29c-25,46 -37,98 -37,156 0,60 12,114 36,160 24,46 58,82 101,107 44,25 95,38 153,38 56,0 107,-13 151,-40 44,-26 78,-63 103,-109 24,-46 36,-98 36,-156 0,-93 -26,-167 -78,-222 -51,-56 -122,-84 -212,-84 -56,0 -105,13 -150,40 -44,26 -78,63 -103,110z"/>
   <path class="fil0" d="M13590 5216c0,-83 16,-144 46,-185 30,-40 67,-60 110,-60 42,0 76,20 103,60 27,41 40,94 40,161 0,63 -9,113 -29,151 -20,37 -44,63 -72,77 -28,15 -56,22 -85,22 -42,0 -80,-15 -113,-45l0 -181zm-122 -196c4,13 7,30 7,52l0 565c0,43 -6,72 -19,87 -12,15 -35,23 -70,25 -4,12 -6,30 -6,55 33,-3 90,-4 169,-4 69,0 123,1 162,4 0,-25 -2,-43 -6,-55 -30,-2 -52,-6 -68,-14 -16,-7 -27,-20 -35,-39 -8,-20 -12,-48 -12,-85l0 -128c36,12 72,18 107,18 62,0 118,-15 167,-44 49,-30 86,-70 113,-122 26,-51 39,-108 39,-171 0,-92 -20,-161 -62,-206 -41,-45 -100,-68 -177,-68 -40,0 -76,10 -108,30 -32,20 -55,42 -68,65 -12,20 -22,38 -30,54 7,-23 12,-41 15,-53 3,-13 4,-26 4,-39 0,-32 -9,-51 -28,-57 -20,10 -46,20 -81,28 -34,9 -64,14 -91,16 -8,12 -11,28 -11,47 27,1 48,5 61,11 14,7 23,16 28,28z"/>
   <path class="fil0" d="M14287 5011c25,-40 61,-59 109,-59 32,0 61,10 88,32 26,21 47,52 63,91 16,39 24,85 24,136 0,70 -13,126 -39,167 -25,41 -63,61 -112,61 -54,0 -95,-23 -126,-71 -30,-47 -45,-114 -45,-199 0,-66 12,-119 38,-158zm-30 452c43,25 94,38 152,38 57,0 107,-13 151,-40 44,-26 78,-63 103,-109 24,-46 36,-98 36,-156 0,-93 -26,-167 -77,-222 -52,-56 -123,-84 -213,-84 -55,0 -105,13 -149,40 -44,26 -79,63 -104,110 -24,46 -37,98 -37,156 0,60 12,114 36,160 24,46 58,82 102,107z"/>
   <path class="fil0" d="M14956 5307c14,-61 24,-150 31,-269 2,-29 4,-47 6,-56 3,-9 10,-16 21,-20 15,-6 37,-9 64,-9 30,0 52,3 66,9 10,4 17,12 21,23 4,11 5,29 5,53l0 317c0,21 -2,38 -6,49 -4,12 -12,20 -22,25 -8,4 -20,6 -36,7 -17,1 -45,2 -84,2l-133 0c31,-27 53,-71 67,-131zm-92 71c-11,16 -25,30 -41,40 -16,11 -37,18 -65,20l-14 0c-13,11 -19,27 -19,46 11,54 17,128 17,221 9,4 21,5 34,5 15,0 27,-1 38,-5 -2,-78 3,-150 16,-215l462 0c13,65 19,137 17,215 10,4 23,5 37,5 14,0 25,-1 35,-5 0,-93 5,-167 17,-221 0,-19 -7,-35 -20,-46l-16 0c-27,0 -46,-8 -58,-24 -12,-15 -18,-45 -18,-87l0 -262c0,-43 6,-72 18,-88 12,-16 31,-24 58,-24 4,-13 6,-31 6,-55 -46,2 -129,4 -249,4 -121,0 -210,-1 -268,-3 0,23 2,41 6,54 26,2 44,5 54,9 10,4 17,12 19,22 3,10 4,28 3,52 -5,166 -28,279 -69,342z"/>
   <path class="fil0" d="M16115 4977c12,-16 31,-24 58,-24 4,-13 6,-31 6,-55 -37,2 -83,4 -140,4 -56,0 -103,-2 -140,-4 0,24 3,42 7,55 26,0 46,8 58,24 12,16 17,45 17,88l0 99 -293 0 0 -99c0,-43 6,-72 18,-88 11,-16 31,-24 57,-24 5,-13 7,-31 7,-55 -37,2 -84,4 -140,4 -57,0 -103,-2 -140,-4 0,24 2,42 6,55 27,0 46,8 58,24 12,16 18,45 18,88l0 262c0,42 -6,72 -18,87 -12,16 -31,24 -58,24 -4,13 -6,31 -6,55 38,-2 84,-3 140,-3 56,0 103,1 140,3 0,-24 -2,-42 -7,-55 -26,0 -46,-8 -57,-24 -12,-15 -18,-45 -18,-87l0 -111c63,-4 161,-6 293,-6l0 117c0,42 -5,72 -17,87 -12,16 -32,24 -58,24 -4,13 -7,31 -7,55 38,-2 85,-3 140,-3 57,0 103,1 140,3 0,-24 -2,-42 -6,-55 -27,0 -46,-8 -58,-24 -12,-15 -18,-45 -18,-87l0 -262c0,-43 6,-72 18,-88z"/>
   <path class="fil0" d="M16469 5208c17,-1 41,-2 71,-2 45,0 87,10 125,29 38,20 57,52 57,97 0,71 -52,106 -155,106 -28,0 -48,-2 -61,-6 -13,-5 -23,-13 -28,-25 -6,-12 -9,-30 -9,-55l0 -144zm-133 206c-12,16 -31,24 -58,24 -4,13 -6,31 -6,55 61,-2 163,-3 306,-3 94,0 164,-16 210,-47 45,-32 68,-73 68,-125 0,-109 -100,-164 -299,-164 -32,0 -61,2 -88,4l0 -113c0,-36 7,-59 22,-71 14,-12 39,-19 77,-21 4,-12 7,-30 7,-55 -35,2 -85,4 -151,4 -65,0 -116,-2 -152,-4 0,24 2,42 6,55 27,0 46,8 58,24 12,16 18,45 18,88l0 262c0,42 -6,72 -18,87z"/>
   <path class="fil0" d="M17103 4977c12,-16 32,-24 58,-24 4,-13 7,-31 7,-55 -37,2 -84,4 -140,4 -56,0 -103,-2 -140,-4 0,24 2,42 6,55 27,0 46,8 58,24 12,16 18,45 18,88l0 262c0,42 -6,72 -18,87 -12,16 -31,24 -58,24 -4,13 -6,31 -6,55 37,-2 84,-3 140,-3 56,0 103,1 140,3 0,-24 -3,-42 -7,-55 -26,0 -46,-8 -58,-24 -12,-15 -18,-45 -18,-87l0 -262c0,-43 6,-72 18,-88z"/>
   <path class="fil0" d="M17885 4977c12,-16 31,-24 58,-24 4,-13 6,-31 6,-55 -37,2 -97,4 -182,4l-309 469 0 -306c0,-43 6,-72 18,-88 11,-16 31,-24 57,-24 5,-13 7,-31 7,-55 -37,2 -84,4 -140,4 -57,0 -103,-2 -140,-4 0,24 2,42 6,55 27,0 46,8 58,24 12,16 18,45 18,88l0 262c0,42 -6,72 -18,87 -12,16 -31,24 -58,24 -4,13 -6,31 -6,55 38,-2 98,-3 182,-3l309 -474 0 311c0,42 -5,72 -17,87 -12,16 -32,24 -58,24 -4,13 -7,31 -7,55 38,-2 85,-3 140,-3 57,0 103,1 140,3 0,-24 -2,-42 -6,-55 -27,0 -46,-8 -58,-24 -12,-15 -18,-45 -18,-87l0 -262c0,-43 6,-72 18,-88z"/>
   <path class="fil0" d="M17427 4760c44,35 102,53 172,53 72,0 131,-18 179,-55 47,-37 71,-89 71,-155 -17,-9 -39,-13 -65,-13 -11,0 -19,0 -25,1 -4,55 -18,95 -42,121 -23,26 -58,39 -105,39 -47,0 -84,-13 -110,-39 -25,-26 -42,-66 -51,-121 -32,-3 -62,4 -90,18 0,65 22,115 66,151z"/>
  </g>
 </g>
</svg>
